<svg width="35" height="35" viewBox="0 0 35 35" fill="none" xmlns="http://www.w3.org/2000/svg">
<rect width="35" height="35" rx="5" fill="#44656C"/>
<mask id="mask0_237_3616" style="mask-type:alpha" maskUnits="userSpaceOnUse" x="3" y="0" width="29" height="29">
<rect x="3" width="29" height="29" fill="#D9D9D9"/>
</mask>
<g mask="url(#mask0_237_3616)">
<path d="M9.1843 27.7706C8.57393 27.7706 8.05729 27.5592 7.63438 27.1362C7.21146 26.7133 7 26.1967 7 25.5863V9.41331C7 8.80294 7.21146 8.2863 7.63438 7.86338C8.05729 7.44046 8.57393 7.229 9.1843 7.229H25.3573C25.9677 7.229 26.4843 7.44046 26.9072 7.86338C27.3302 8.2863 27.5416 8.80294 27.5416 9.41331V19.7747C27.2643 19.6229 26.9766 19.4959 26.6783 19.3937C26.3801 19.2914 26.0637 19.2078 25.7291 19.1427V9.41331C25.7291 9.32035 25.6904 9.23513 25.613 9.15766C25.5355 9.0802 25.4503 9.04147 25.3573 9.04147H9.1843C9.09134 9.04147 9.00613 9.0802 8.92865 9.15766C8.8512 9.23513 8.81247 9.32035 8.81247 9.41331V25.5863C8.81247 25.6793 8.8512 25.7645 8.92865 25.842C9.00613 25.9194 9.09134 25.9581 9.1843 25.9581H17.5264C17.5264 26.2726 17.5468 26.5813 17.5876 26.8843C17.6283 27.1873 17.6962 27.4828 17.7913 27.7706H9.1843ZM12.508 23.2626C12.8111 23.2626 13.0649 23.1601 13.2693 22.9551C13.4738 22.75 13.5761 22.496 13.5761 22.1929C13.5761 21.8898 13.4736 21.636 13.2685 21.4315C13.0635 21.2271 12.8095 21.1248 12.5064 21.1248C12.2033 21.1248 11.9495 21.2273 11.745 21.4324C11.5405 21.6374 11.4383 21.8914 11.4383 22.1945C11.4383 22.4976 11.5408 22.7514 11.7458 22.9559C11.9509 23.1604 12.2049 23.2626 12.508 23.2626ZM12.508 18.5687C12.8111 18.5687 13.0649 18.4662 13.2693 18.2612C13.4738 18.0561 13.5761 17.8021 13.5761 17.499C13.5761 17.1959 13.4736 16.9421 13.2685 16.7376C13.0635 16.5332 12.8095 16.4309 12.5064 16.4309C12.2033 16.4309 11.9495 16.5334 11.745 16.7384C11.5405 16.9435 11.4383 17.1975 11.4383 17.5006C11.4383 17.8037 11.5408 18.0575 11.7458 18.262C11.9509 18.4665 12.2049 18.5687 12.508 18.5687ZM12.508 13.8748C12.8111 13.8748 13.0649 13.7723 13.2693 13.5673C13.4738 13.3622 13.5761 13.1082 13.5761 12.8051C13.5761 12.502 13.4736 12.2482 13.2685 12.0437C13.0635 11.8392 12.8095 11.737 12.5064 11.737C12.2033 11.737 11.9495 11.8395 11.745 12.0445C11.5405 12.2496 11.4383 12.5036 11.4383 12.8067C11.4383 13.1098 11.5408 13.3636 11.7458 13.5681C11.9509 13.7726 12.2049 13.8748 12.508 13.8748ZM16.1787 23.1H18.205C18.3428 22.7529 18.5074 22.4303 18.6988 22.1321C18.8901 21.8339 19.1081 21.5524 19.3529 21.2875H16.1787V23.1Z" fill="#FEFEFE"/>
<path d="M18.205 23.1H16.1787V21.2875H19.3529C19.1081 21.5524 18.8901 21.8339 18.6988 22.1321C18.5074 22.4303 18.3428 22.7529 18.205 23.1Z" fill="#FEFEFE"/>
<path d="M18.205 23.1H16.1787V21.2875H19.3529C19.1081 21.5524 18.8901 21.8339 18.6988 22.1321C18.5074 22.4303 18.3428 22.7529 18.205 23.1Z" fill="#FEFEFE"/>
<path d="M18.205 23.1H16.1787V21.2875H19.3529C19.1081 21.5524 18.8901 21.8339 18.6988 22.1321C18.5074 22.4303 18.3428 22.7529 18.205 23.1Z" fill="#FEFEFE"/>
</g>
<path d="M24 22V28" stroke="white" stroke-width="1.5" stroke-linecap="round"/>
<path d="M21 25L27 25" stroke="white" stroke-width="1.5" stroke-linecap="round"/>
<path d="M22.1052 18.6516H16.9264C16.4148 18.6516 16 18.2368 16 17.7251C16 17.2134 16.4148 16.7987 16.9264 16.7987H19.5158H22.1052C22.6169 16.7987 23.0317 17.2134 23.0317 17.7251C23.0317 18.2368 22.6169 18.6516 22.1052 18.6516Z" fill="#FEFEFE"/>
<path d="M22.1052 13.8529H16.9265C16.4148 13.8529 16 13.4381 16 12.9265C16 12.4148 16.4148 12 16.9265 12H22.1052C22.6169 12 23.0317 12.4148 23.0317 12.9265C23.0317 13.4381 22.6169 13.8529 22.1052 13.8529Z" fill="#FEFEFE"/>
<path d="M16.4393 21.3488C16.4019 21.3687 16.3459 21.422 16.3004 21.4183C16.2249 21.4122 16.1877 21.263 16.1692 21.2079C16.1564 21.17 16.1121 21.0261 16.1614 21.0015" stroke="#44656C" stroke-linecap="round"/>
<path d="M16.3003 23.2074C16.3363 23.1374 16.4158 23.0694 16.4392 22.999" stroke="#44656C" stroke-linecap="round"/>
<path d="M16.8999 22.1899H17.5" stroke="#FEFEFE" stroke-width="1.81" stroke-linecap="round" stroke-linejoin="round"/>
</svg>
