<svg width="24" height="24" viewBox="0 0 24 24" fill="#2F5057" xmlns="http://www.w3.org/2000/svg">
<mask id="mask0_259_911" style="mask-type:alpha" maskUnits="userSpaceOnUse" x="0" y="0" width="24" height="24">
<rect width="24" height="24" fill="#D9D9D9"/>
</mask>
<g mask="url(#mask0_259_911)">
<path d="M4.82454 20.1755H8.89475V14.0468C8.89475 13.7353 9.00011 13.4742 9.21083 13.2635C9.42155 13.0527 9.68266 12.9474 9.99418 12.9474H14.2514C14.563 12.9474 14.8241 13.0527 15.0348 13.2635C15.2455 13.4742 15.3509 13.7353 15.3509 14.0468V20.1755H19.4211V9.41519C19.4211 9.35281 19.4074 9.29629 19.3801 9.2456C19.3528 9.19492 19.3158 9.15008 19.269 9.1111L12.345 3.9064C12.2827 3.85182 12.2086 3.82454 12.1228 3.82454C12.037 3.82454 11.963 3.85182 11.9006 3.9064L4.97658 9.1111C4.92981 9.15008 4.89278 9.19492 4.86547 9.2456C4.83818 9.29629 4.82454 9.35281 4.82454 9.41519V20.1755ZM3 20.1755V9.41519C3 9.06705 3.07788 8.73723 3.23364 8.42573C3.38939 8.11424 3.60469 7.85771 3.87953 7.65616L10.8035 2.43978C11.1878 2.14659 11.6269 2 12.1209 2C12.615 2 13.0553 2.14659 13.4421 2.43978L20.3661 7.65616C20.6409 7.85771 20.8562 8.11424 21.012 8.42573C21.1677 8.73723 21.2456 9.06705 21.2456 9.41519V20.1755C21.2456 20.6729 21.0659 21.1014 20.7064 21.4608C20.347 21.8203 19.9185 22 19.4211 22H14.6258C14.3143 22 14.0531 21.8946 13.8424 21.6839C13.6317 21.4732 13.5263 21.2121 13.5263 20.9006V14.7719H10.7193V20.9006C10.7193 21.2121 10.6139 21.4732 10.4032 21.6839C10.1925 21.8946 9.93136 22 9.61987 22H4.82454C4.32708 22 3.89863 21.8203 3.53919 21.4608C3.17973 21.1014 3 20.6729 3 20.1755Z" fill="#2F5057"/>
</g>
</svg>
